<svg xmlns="http://www.w3.org/2000/svg" width="153.791" height="33.78" viewBox="0 0 153.791 33.78">
  <g id="Find_Here_Logo" data-name="Find Here Logo" transform="translate(-639.019 -802.397)">
    <path id="Path_12954" data-name="Path 12954" d="M639.019,836.105V811.526a8.224,8.224,0,0,1,2.38-6,7.937,7.937,0,0,1,5.9-2.427h4.943v3.936H648.06a4.559,4.559,0,0,0-4.739,4.761v5.9h8.926v3.936h-8.926v14.463Z" transform="translate(0 -0.295)" fill="#2e6dd3"/>
    <path id="Path_12955" data-name="Path 12955" d="M663.979,805.373a2.97,2.97,0,0,1,2.975-2.976,2.818,2.818,0,0,1,2.059.87,2.983,2.983,0,0,1,0,4.211,2.816,2.816,0,0,1-2.059.87,2.97,2.97,0,0,1-2.975-2.975Zm.961,30.438V813.7h3.982v22.108Z" transform="translate(-10.404)" fill="#2e6dd3"/>
    <path id="Path_12956" data-name="Path 12956" d="M679.362,843.663V831.3a9.722,9.722,0,0,1,2.838-7.324,11.7,11.7,0,0,1,15.059,0A9.725,9.725,0,0,1,700.1,831.3v12.358H696.16v-12.4a6.063,6.063,0,0,0-6.453-6.454,6.22,6.22,0,0,0-4.6,1.763,6.34,6.34,0,0,0-1.762,4.691v12.4Z" transform="translate(-16.817 -7.852)" fill="#2e6dd3"/>
    <path id="Path_12957" data-name="Path 12957" d="M736.634,814.5v4.119a16.029,16.029,0,0,0-2.38-.869,8.117,8.117,0,0,0-1.968-.229,8.537,8.537,0,0,0-5.95,2.2,7.1,7.1,0,0,0-2.427,5.493,7.482,7.482,0,0,0,12.976,5.058,8.472,8.472,0,0,0,2.22-5.973V803.1h3.936v21.238a12.453,12.453,0,0,1-3.067,8.834,10.769,10.769,0,0,1-8.284,3.3,11.484,11.484,0,0,1-8.423-3.2,11.064,11.064,0,0,1-3.249-8.239,10.931,10.931,0,0,1,3.318-8.262,11.829,11.829,0,0,1,8.537-3.181,11.11,11.11,0,0,1,2.151.184A25.307,25.307,0,0,1,736.634,814.5Z" transform="translate(-33.764 -0.295)" fill="#2e6dd3"/>
    <path id="Path_12958" data-name="Path 12958" d="M766.326,836.105v-33h3.982v13q.869-.688,1.35-1.007a5.489,5.489,0,0,1,1.076-.549,10.37,10.37,0,0,1,4.531-1.053,9.4,9.4,0,0,1,6.866,2.7,9.053,9.053,0,0,1,2.746,6.728v13.182H782.9V823.2a5.406,5.406,0,0,0-1.694-4.028,5.8,5.8,0,0,0-4.211-1.648,6.99,6.99,0,0,0-4.714,1.693,5.2,5.2,0,0,0-1.968,4.074v12.816Z" transform="translate(-53.067 -0.295)" fill="#2e6dd3"/>
    <path id="Path_12959" data-name="Path 12959" d="M828.5,827.944l-12.038,9.566-2.337-2.7,9.352-7.49a6.5,6.5,0,0,0-5.039-2.394,7.886,7.886,0,0,0-5.613,2.35,7.645,7.645,0,0,0,5.2,13.075q3.8,0,6.687-3.982l3.2,2.014a13.308,13.308,0,0,1-2.38,3.021,11.425,11.425,0,0,1-7.506,2.563,10.814,10.814,0,0,1-11.352-11.282,11.426,11.426,0,0,1,3.2-8.314,10.829,10.829,0,0,1,8.1-3.29,11.749,11.749,0,0,1,6.591,1.956,8.8,8.8,0,0,1,2.106,1.841A18.736,18.736,0,0,1,828.5,827.944Z" transform="translate(-69.884 -7.787)" fill="#2e6dd3"/>
    <path id="Path_12960" data-name="Path 12960" d="M848.74,843.6V829.317a8.009,8.009,0,0,1,2.38-5.813,7.783,7.783,0,0,1,5.767-2.426h1.1v3.662h-.732a4.318,4.318,0,0,0-3.25,1.331,4.813,4.813,0,0,0-1.282,3.486V843.6Z" transform="translate(-87.421 -7.787)" fill="#2e6dd3"/>
    <path id="Path_12961" data-name="Path 12961" d="M887.133,827.944,875.1,837.51l-2.336-2.7,9.351-7.49a6.5,6.5,0,0,0-5.039-2.394,7.884,7.884,0,0,0-5.612,2.35,7.645,7.645,0,0,0,5.2,13.075q3.8,0,6.687-3.982l3.2,2.014a13.309,13.309,0,0,1-2.38,3.021,11.425,11.425,0,0,1-7.506,2.563A10.814,10.814,0,0,1,865.3,832.682a11.426,11.426,0,0,1,3.2-8.314,10.829,10.829,0,0,1,8.1-3.29,11.752,11.752,0,0,1,6.591,1.956,8.808,8.808,0,0,1,2.106,1.841A18.708,18.708,0,0,1,887.133,827.944Z" transform="translate(-94.323 -7.787)" fill="#2e6dd3"/>
  </g>
</svg>
